<svg xmlns="http://www.w3.org/2000/svg" width="62.742" height="34.755" viewBox="0 0 62.742 34.755">
  <g id="Group_276" data-name="Group 276" transform="translate(-147.253 -34.91)">
    <path id="Path_110" data-name="Path 110" d="M177.025,69.665l-4.614-4.614a10.7,10.7,0,0,1-4.684,2.41c-9.795,2.146-19.8-5.058-20.441-15.062a16.453,16.453,0,0,1,19.668-17.168c6.238,1.217,12.344,7.9,13.035,14.223a16.332,16.332,0,0,1-3.2,11.736l4.568,4.141Zm-4.889-13.134a10.133,10.133,0,0,0,1.04-8.051,9.738,9.738,0,0,0-6.616-6.649,9.921,9.921,0,1,0-2.644,19.4,6.551,6.551,0,0,0,3.832-.843l-.021,0a6.931,6.931,0,0,0,2.443-1.624,7.412,7.412,0,0,0,1.957-2.179Z" transform="translate(0 0)" fill="#4082ff"/>
    <path id="Path_111" data-name="Path 111" d="M172.5,35.65l14.972,31.712h-7.011l-9.046-19.269-9.819,19.269h-7.1L170.639,35.65Z" transform="translate(22.525 2.303)" fill="#4082ff"/>
  </g>
</svg>
